<svg xmlns="http://www.w3.org/2000/svg" viewBox="0 0 1024 1024" role="img" aria-label="Assistente de voo C-152">
  <defs>
    <linearGradient id="bg" x1="0" y1="0" x2="0" y2="1">
      <stop offset="0%" stop-color="#0a141c"/>
      <stop offset="100%" stop-color="#05090d"/>
    </linearGradient>
    <radialGradient id="tealGlow" cx="72%" cy="18%" r="50%">
      <stop offset="0%" stop-color="#35e8dc" stop-opacity="0.48"/>
      <stop offset="100%" stop-color="#35e8dc" stop-opacity="0"/>
    </radialGradient>
    <radialGradient id="amberGlow" cx="18%" cy="82%" r="46%">
      <stop offset="0%" stop-color="#f0b84f" stop-opacity="0.42"/>
      <stop offset="100%" stop-color="#f0b84f" stop-opacity="0"/>
    </radialGradient>
    <filter id="shadow" x="-20%" y="-20%" width="140%" height="140%">
      <feGaussianBlur in="SourceAlpha" stdDeviation="18" result="blur"/>
      <feOffset in="blur" dx="0" dy="16" result="offset"/>
      <feColorMatrix in="offset" type="matrix" values="0 0 0 0 0  0 0 0 0 0  0 0 0 0 0  0 0 0 0.65 0" result="shadow"/>
      <feMerge>
        <feMergeNode in="shadow"/>
        <feMergeNode in="SourceGraphic"/>
      </feMerge>
    </filter>
  </defs>

  <rect width="1024" height="1024" fill="url(#bg)"/>
  <rect width="1024" height="1024" fill="url(#tealGlow)"/>
  <rect width="1024" height="1024" fill="url(#amberGlow)"/>

  <rect x="162" y="132" width="700" height="760" rx="84" fill="#111d26" filter="url(#shadow)"/>
  <rect x="168" y="138" width="688" height="748" rx="78" fill="none" stroke="#35e8dc" stroke-opacity="0.92" stroke-width="6"/>
  <rect x="162" y="132" width="700" height="760" rx="84" fill="none" stroke="#1f505a" stroke-opacity="0.6" stroke-width="10"/>

  <rect x="372" y="162" width="280" height="44" rx="22" fill="#2c3a45" stroke="#35e8dc" stroke-opacity="0.28" stroke-width="2"/>
  <rect x="394" y="173" width="236" height="22" rx="11" fill="#35e8dc" fill-opacity="0.82"/>

  <g fill="#ffffff" fill-opacity="0.1" stroke="#ffffff" stroke-opacity="0.11" stroke-width="1">
    <rect x="290" y="344" width="444" height="34" rx="17"/>
    <rect x="290" y="412" width="444" height="34" rx="17"/>
    <rect x="290" y="480" width="444" height="34" rx="17"/>
  </g>

  <g>
    <circle cx="248" cy="361" r="16" fill="#141f28" stroke="#35e8dc" stroke-width="4"/>
    <circle cx="248" cy="429" r="16" fill="#141f28" stroke="#35e8dc" stroke-width="4"/>
    <circle cx="248" cy="497" r="16" fill="#141f28" stroke="#35e8dc" stroke-width="4"/>
    <rect x="312" y="354" width="64" height="10" rx="5" fill="#35e8dc"/>
    <rect x="312" y="422" width="64" height="10" rx="5" fill="#f0b84f"/>
    <rect x="312" y="490" width="64" height="10" rx="5" fill="#35e8dc"/>
  </g>

  <path d="M 294 744 L 430 612 L 586 512 L 736 376" fill="none" stroke="#35e8dc" stroke-width="20" stroke-linecap="round" stroke-linejoin="round"/>
  <circle cx="294" cy="744" r="16" fill="#35e8dc"/>
  <circle cx="430" cy="612" r="16" fill="#35e8dc"/>
  <circle cx="586" cy="512" r="16" fill="#35e8dc"/>
  <circle cx="736" cy="376" r="20" fill="#f0b84f"/>
  <circle cx="736" cy="376" r="10" fill="#fff5dc" fill-opacity="0.55"/>

  <path d="M 664 462 L 708 412 L 742 390" fill="none" stroke="#35e8dc" stroke-opacity="0.4" stroke-width="10" stroke-linecap="round" stroke-linejoin="round"/>

  <rect x="176" y="146" width="672" height="728" rx="76" fill="none" stroke="#ffffff" stroke-opacity="0.06" stroke-width="2"/>
</svg>
